<?xml version="1.0" encoding="UTF-8" standalone="no"?>
<!DOCTYPE svg PUBLIC "-//W3C//DTD SVG 1.0//EN" "http://www.w3.org/TR/2001/PR-SVG-20010719/DTD/svg10.dtd">
<svg width="17cm" height="12cm" viewBox="-84 186 330 233" xmlns="http://www.w3.org/2000/svg" xmlns:xlink="http://www.w3.org/1999/xlink">
  <g>
    <rect style="fill: #ffffff" x="-82" y="188" width="157" height="110"/>
    <rect style="fill: none; fill-opacity:0; stroke-width: 2; stroke: #000000" x="-82" y="188" width="157" height="110"/>
  </g>
  <g>
    <rect style="fill: #ffffff" x="-82" y="188" width="20" height="109"/>
    <rect style="fill: none; fill-opacity:0; stroke-width: 2; stroke: #000000" x="-82" y="188" width="20" height="109"/>
  </g>
  <rect style="fill: none; fill-opacity:0; stroke-width: 2; stroke: #000000" x="-82.2" y="188" width="157.2" height="21.1"/>
  <g>
    <rect style="fill: #ffffff" x="50" y="277" width="24" height="21"/>
    <rect style="fill: none; fill-opacity:0; stroke-width: 2; stroke: #000000" x="50" y="277" width="24" height="21"/>
  </g>
  <g>
    <rect style="fill: #ffffff" x="-62" y="188" width="99" height="21"/>
    <rect style="fill: none; fill-opacity:0; stroke-width: 2; stroke: #000000" x="-62" y="188" width="99" height="21"/>
  </g>
  <g>
    <rect style="fill: #ffffff" x="-82.2" y="269" width="20.2" height="28.1"/>
    <rect style="fill: none; fill-opacity:0; stroke-width: 2; stroke: #000000" x="-82.2" y="269" width="20.2" height="28.1"/>
  </g>
  <text font-size="12.8" style="fill: #000000;text-anchor:start;font-family:sans-serif;font-style:normal;font-weight:normal" x="-14.5" y="203.5">
    <tspan x="-14.5" y="203.5">H            </tspan>
  </text>
  <text font-size="12.8" style="fill: #000000;text-anchor:start;font-family:sans-serif;font-style:normal;font-weight:normal" x="-3.6" y="198.55">
    <tspan x="-3.6" y="198.55"></tspan>
  </text>
  <text font-size="12.8" style="fill: #000000;text-anchor:start;font-family:sans-serif;font-style:normal;font-weight:normal" x="-12.5" y="198.5">
    <tspan x="-12.5" y="198.5"></tspan>
  </text>
  <text font-size="12.8" style="fill: #000000;text-anchor:start;font-family:sans-serif;font-style:normal;font-weight:normal" x="-75.1" y="288.05">
    <tspan x="-75.1" y="288.05">B</tspan>
  </text>
  <text font-size="12.8" style="fill: #000000;text-anchor:start;font-family:sans-serif;font-style:normal;font-weight:normal" x="-77.2" y="242">
    <tspan x="-77.2" y="242">A</tspan>
  </text>
  <g>
    <rect style="fill: #ffffff" x="87.8" y="307.6" width="157" height="110"/>
    <rect style="fill: none; fill-opacity:0; stroke-width: 2; stroke: #000000" x="87.8" y="307.6" width="157" height="110"/>
  </g>
  <g>
    <rect style="fill: #ffffff" x="87.8" y="307.6" width="20" height="109.4"/>
    <rect style="fill: none; fill-opacity:0; stroke-width: 2; stroke: #000000" x="87.8" y="307.6" width="20" height="109.4"/>
  </g>
  <rect style="fill: none; fill-opacity:0; stroke-width: 2; stroke: #000000" x="87.705" y="307.6" width="157.004" height="21.1"/>
  <g>
    <rect style="fill: #ffffff" x="219.8" y="396.6" width="24" height="21"/>
    <rect style="fill: none; fill-opacity:0; stroke-width: 2; stroke: #000000" x="219.8" y="396.6" width="24" height="21"/>
  </g>
  <g>
    <rect style="fill: #ffffff" x="107.8" y="307.6" width="99" height="21"/>
    <rect style="fill: none; fill-opacity:0; stroke-width: 2; stroke: #000000" x="107.8" y="307.6" width="99" height="21"/>
  </g>
  <g>
    <rect style="fill: #ffffff" x="87.6" y="328.6" width="20.2" height="28.1"/>
    <rect style="fill: none; fill-opacity:0; stroke-width: 2; stroke: #000000" x="87.6" y="328.6" width="20.2" height="28.1"/>
  </g>
  <text font-size="12.8" style="fill: #000000;text-anchor:start;font-family:sans-serif;font-style:normal;font-weight:normal" x="155.3" y="323.1">
    <tspan x="155.3" y="323.1">H              L</tspan>
  </text>
  <text font-size="12.8" style="fill: #000000;text-anchor:start;font-family:sans-serif;font-style:normal;font-weight:normal" x="166.207" y="318.15">
    <tspan x="166.207" y="318.15"></tspan>
  </text>
  <text font-size="12.8" style="fill: #000000;text-anchor:start;font-family:sans-serif;font-style:normal;font-weight:normal" x="157.3" y="318.1">
    <tspan x="157.3" y="318.1"></tspan>
  </text>
  <text font-size="12.8" style="fill: #000000;text-anchor:start;font-family:sans-serif;font-style:normal;font-weight:normal" x="93.7" y="346.65">
    <tspan x="93.7" y="346.65">B</tspan>
  </text>
  <text font-size="12.8" style="fill: #000000;text-anchor:start;font-family:sans-serif;font-style:normal;font-weight:normal" x="93.6" y="389.6">
    <tspan x="93.6" y="389.6">A</tspan>
  </text>
  <g>
    <rect style="fill: #ffffff" x="88" y="187.5" width="157" height="110"/>
    <rect style="fill: none; fill-opacity:0; stroke-width: 2; stroke: #000000" x="88" y="187.5" width="157" height="110"/>
  </g>
  <g>
    <rect style="fill: #ffffff" x="88" y="189" width="20" height="109"/>
    <rect style="fill: none; fill-opacity:0; stroke-width: 2; stroke: #000000" x="88" y="189" width="20" height="109"/>
  </g>
  <rect style="fill: none; fill-opacity:0; stroke-width: 2; stroke: #000000" x="87.8" y="188" width="156.875" height="20.6"/>
  <g>
    <rect style="fill: #ffffff" x="220" y="276.5" width="24" height="21"/>
    <rect style="fill: none; fill-opacity:0; stroke-width: 2; stroke: #000000" x="220" y="276.5" width="24" height="21"/>
  </g>
  <g>
    <rect style="fill: #ffffff" x="108" y="188" width="99" height="20.5"/>
    <rect style="fill: none; fill-opacity:0; stroke-width: 2; stroke: #000000" x="108" y="188" width="99" height="20.5"/>
  </g>
  <g>
    <rect style="fill: #ffffff" x="87.8" y="208.5" width="20.2" height="28.1"/>
    <rect style="fill: none; fill-opacity:0; stroke-width: 2; stroke: #000000" x="87.8" y="208.5" width="20.2" height="28.1"/>
  </g>
  <text font-size="12.8" style="fill: #000000;text-anchor:start;font-family:sans-serif;font-style:normal;font-weight:normal" x="155.5" y="203">
    <tspan x="155.5" y="203">H  </tspan>
  </text>
  <text font-size="12.8" style="fill: #000000;text-anchor:start;font-family:sans-serif;font-style:normal;font-weight:normal" x="166.238" y="198.3">
    <tspan x="166.238" y="198.3"></tspan>
  </text>
  <text font-size="12.8" style="fill: #000000;text-anchor:start;font-family:sans-serif;font-style:normal;font-weight:normal" x="157.5" y="198.25">
    <tspan x="157.5" y="198.25"></tspan>
  </text>
  <text font-size="12.8" style="fill: #000000;text-anchor:start;font-family:sans-serif;font-style:normal;font-weight:normal" x="93.9" y="226.55">
    <tspan x="93.9" y="226.55">B</tspan>
  </text>
  <text font-size="12.8" style="fill: #000000;text-anchor:start;font-family:sans-serif;font-style:normal;font-weight:normal" x="93.8" y="269.5">
    <tspan x="93.8" y="269.5">A</tspan>
  </text>
  <g>
    <rect style="fill: #ffffff" x="-82" y="307.5" width="157" height="110"/>
    <rect style="fill: none; fill-opacity:0; stroke-width: 2; stroke: #000000" x="-82" y="307.5" width="157" height="110"/>
  </g>
  <g>
    <rect style="fill: #ffffff" x="-82" y="307.5" width="20" height="109"/>
    <rect style="fill: none; fill-opacity:0; stroke-width: 2; stroke: #000000" x="-82" y="307.5" width="20" height="109"/>
  </g>
  <rect style="fill: none; fill-opacity:0; stroke-width: 2; stroke: #000000" x="-82.2" y="307.5" width="156.247" height="21.1"/>
  <g>
    <rect style="fill: #ffffff" x="50" y="396.5" width="24" height="21"/>
    <rect style="fill: none; fill-opacity:0; stroke-width: 2; stroke: #000000" x="50" y="396.5" width="24" height="21"/>
  </g>
  <g>
    <rect style="fill: #ffffff" x="-62" y="307.5" width="99" height="21.5"/>
    <rect style="fill: none; fill-opacity:0; stroke-width: 2; stroke: #000000" x="-62" y="307.5" width="99" height="21.5"/>
  </g>
  <g>
    <rect style="fill: #ffffff" x="-82.2" y="388.5" width="20.2" height="28.1"/>
    <rect style="fill: none; fill-opacity:0; stroke-width: 2; stroke: #000000" x="-82.2" y="388.5" width="20.2" height="28.1"/>
  </g>
  <text font-size="12.8" style="fill: #000000;text-anchor:start;font-family:sans-serif;font-style:normal;font-weight:normal" x="-45.5" y="323">
    <tspan x="-45.5" y="323">L</tspan>
  </text>
  <text font-size="12.8" style="fill: #000000;text-anchor:start;font-family:sans-serif;font-style:normal;font-weight:normal" x="-4.07666" y="318.05">
    <tspan x="-4.07666" y="318.05"></tspan>
  </text>
  <text font-size="12.8" style="fill: #000000;text-anchor:start;font-family:sans-serif;font-style:normal;font-weight:normal" x="-12.5" y="318.25">
    <tspan x="-12.5" y="318.25"></tspan>
  </text>
  <text font-size="12.8" style="fill: #000000;text-anchor:start;font-family:sans-serif;font-style:normal;font-weight:normal" x="-75.1" y="407.55">
    <tspan x="-75.1" y="407.55">B</tspan>
  </text>
  <text font-size="12.8" style="fill: #000000;text-anchor:start;font-family:sans-serif;font-style:normal;font-weight:normal" x="-77.2" y="361.5">
    <tspan x="-77.2" y="361.5">A</tspan>
  </text>
  <g>
    <rect style="fill: #ffffff" x="-23.2" y="308" width="97.6671" height="21.1"/>
    <rect style="fill: none; fill-opacity:0; stroke-width: 2; stroke: #000000" x="-23.2" y="308" width="97.6671" height="21.1"/>
  </g>
  <text font-size="12.8" style="fill: #000000;text-anchor:start;font-family:sans-serif;font-style:normal;font-weight:normal" x="21.0087" y="322.334">
    <tspan x="21.0087" y="322.334">H</tspan>
  </text>
  <rect style="fill: none; fill-opacity:0; stroke-width: 2; stroke: #000000" x="87.8" y="307.5" width="156.937" height="21.1"/>
  <g>
    <rect style="fill: #ffffff" x="108" y="307.5" width="99" height="21.5"/>
    <rect style="fill: none; fill-opacity:0; stroke-width: 2; stroke: #000000" x="108" y="307.5" width="99" height="21.5"/>
  </g>
  <text font-size="12.8" style="fill: #000000;text-anchor:start;font-family:sans-serif;font-style:normal;font-weight:normal" x="124.317" y="322.182">
    <tspan x="124.317" y="322.182">L</tspan>
  </text>
  <text font-size="12.8" style="fill: #000000;text-anchor:start;font-family:sans-serif;font-style:normal;font-weight:normal" x="166.269" y="318.05">
    <tspan x="166.269" y="318.05"></tspan>
  </text>
  <text font-size="12.8" style="fill: #000000;text-anchor:start;font-family:sans-serif;font-style:normal;font-weight:normal" x="157.5" y="318.25">
    <tspan x="157.5" y="318.25"></tspan>
  </text>
  <g>
    <rect style="fill: #ffffff" x="146.8" y="308" width="97.9371" height="21.1"/>
    <rect style="fill: none; fill-opacity:0; stroke-width: 2; stroke: #000000" x="146.8" y="308" width="97.9371" height="21.1"/>
  </g>
  <text font-size="12.8" style="fill: #000000;text-anchor:start;font-family:sans-serif;font-style:normal;font-weight:normal" x="191.134" y="324.003">
    <tspan x="191.134" y="324.003">H</tspan>
  </text>
  <text font-size="12.8" style="fill: #000000;text-anchor:start;font-family:sans-serif;font-style:normal;font-weight:normal" x="56" y="290.5">
    <tspan x="56" y="290.5">S1</tspan>
  </text>
  <text font-size="12.8" style="fill: #000000;text-anchor:start;font-family:sans-serif;font-style:normal;font-weight:normal" x="52.8" y="411">
    <tspan x="52.8" y="411">S3</tspan>
  </text>
  <text font-size="12.8" style="fill: #000000;text-anchor:start;font-family:sans-serif;font-style:normal;font-weight:normal" x="223.6" y="292.1">
    <tspan x="223.6" y="292.1">S2</tspan>
  </text>
  <text font-size="12.8" style="fill: #000000;text-anchor:start;font-family:sans-serif;font-style:normal;font-weight:normal" x="223.4" y="412.2">
    <tspan x="223.4" y="412.2">S4</tspan>
  </text>
  <text font-size="12.7998" style="fill: #000000;text-anchor:start;font-family:sans-serif;font-style:normal;font-weight:normal" x="-3.6" y="198.55">
    <tspan x="-3.6" y="198.55"></tspan>
  </text>
  <g>
    <rect style="fill: #ffffff" x="36.8" y="188" width="37" height="21"/>
    <rect style="fill: none; fill-opacity:0; stroke-width: 2; stroke: #000000" x="36.8" y="188" width="37" height="21"/>
  </g>
  <text font-size="12.7998" style="fill: #000000;text-anchor:start;font-family:sans-serif;font-style:normal;font-weight:normal" x="52.3" y="202.5">
    <tspan x="52.3" y="202.5">L</tspan>
  </text>
  <g>
    <rect style="fill: #ffffff" x="205.6" y="187.1" width="39.075" height="21.4956"/>
    <rect style="fill: none; fill-opacity:0; stroke-width: 2; stroke: #000000" x="205.6" y="187.1" width="39.075" height="21.4956"/>
  </g>
  <text font-size="12.7998" style="fill: #000000;text-anchor:start;font-family:sans-serif;font-style:normal;font-weight:normal" x="222.564" y="201.967">
    <tspan x="222.564" y="201.967">L</tspan>
  </text>
</svg>
